<svg width="34" height="35" viewBox="0 0 34 35" fill="none" xmlns="http://www.w3.org/2000/svg">
<path d="M1 34H24.9799" stroke="url(#paint0_linear_515_134)" stroke-width="1.93548"/>
<path d="M1.77344 8.16583V33.3249" stroke="url(#paint1_linear_515_134)" stroke-width="1.93548"/>
<path d="M33 2H3.32062" stroke="url(#paint2_linear_515_134)" stroke-width="2.90322"/>
<path d="M31.9419 31.3644V2.78052" stroke="url(#paint3_linear_515_134)" stroke-width="2.90322"/>
<path d="M18.9653 16.241C18.9653 15.7508 18.837 15.3831 18.5873 15.1244C18.3512 14.852 18.0745 14.6614 17.7506 14.5524C17.4401 14.4299 17.1634 14.355 16.9138 14.3345C16.6776 14.3209 16.5628 14.3073 16.5628 14.3073H14.1334V18.0386H16.5628C16.5628 18.0386 16.6776 18.0318 16.9138 18.0114C17.1634 17.9978 17.4401 17.9297 17.7506 17.8207C18.0745 17.7118 18.3512 17.5416 18.5873 17.3032C18.837 17.0513 18.9653 16.6972 18.9653 16.241ZM22.0695 16.0504C22.0695 17.0173 21.8401 17.7799 21.3947 18.3382C20.9628 18.8829 20.4297 19.2915 19.8021 19.5638C20.4499 19.7817 20.9425 20.0813 21.2867 20.4626C21.6241 20.8303 21.8671 21.2116 22.0155 21.6065C22.1572 21.9878 22.2382 22.3146 22.2585 22.587C22.272 22.8457 22.2855 22.9683 22.2855 22.9683C22.2855 23.8807 22.1235 24.6297 21.7996 25.2289C21.4892 25.8144 21.0843 26.2774 20.5849 26.6179C20.099 26.9447 19.5861 27.1898 19.0462 27.3532C18.5199 27.5167 18.0272 27.6256 17.5616 27.6801C17.1095 27.7209 16.7788 27.7345 16.5628 27.7345H14.1604V24.7386H16.5628C16.9003 24.7386 17.2714 24.7046 17.6696 24.6297C18.0812 24.5411 18.4321 24.3573 18.7223 24.0849C19.026 23.8126 19.1812 23.4177 19.1812 22.8866C19.1812 22.5053 19.0867 22.1989 18.9113 21.9606C18.7493 21.7291 18.5334 21.5452 18.2634 21.4158C18.007 21.2933 17.7506 21.2116 17.4806 21.1707C17.2242 21.1367 17.0082 21.1163 16.8328 21.1163C16.6506 21.1026 16.5628 21.089 16.5628 21.089H11.0562V11.5565C11.0562 11.4339 11.1236 11.3658 11.2721 11.3658H16.5628C16.5628 11.3658 16.6978 11.3795 16.9677 11.3931C17.2377 11.4135 17.5751 11.4612 17.9935 11.5293C18.4051 11.6042 18.8438 11.7335 19.3162 11.9106C19.7818 12.0944 20.2205 12.36 20.6389 12.7004C21.0708 13.0477 21.4082 13.4902 21.6646 14.035C21.9345 14.5797 22.0695 15.2538 22.0695 16.0504Z" fill="url(#paint4_linear_515_134)"/>
<defs>
<linearGradient id="paint0_linear_515_134" x1="12.99" y1="34" x2="12.99" y2="35" gradientUnits="userSpaceOnUse">
<stop/>
<stop offset="1"/>
</linearGradient>
<linearGradient id="paint1_linear_515_134" x1="1.77344" y1="20.7453" x2="0.773438" y2="20.7453" gradientUnits="userSpaceOnUse">
<stop/>
<stop offset="1"/>
</linearGradient>
<linearGradient id="paint2_linear_515_134" x1="18.1603" y1="2" x2="18.1603" y2="1" gradientUnits="userSpaceOnUse">
<stop/>
<stop offset="1"/>
</linearGradient>
<linearGradient id="paint3_linear_515_134" x1="31.9419" y1="17.0725" x2="32.9419" y2="17.0725" gradientUnits="userSpaceOnUse">
<stop/>
<stop offset="1"/>
</linearGradient>
<linearGradient id="paint4_linear_515_134" x1="16.6708" y1="11.3658" x2="16.6708" y2="27.7345" gradientUnits="userSpaceOnUse">
<stop/>
<stop offset="1"/>
</linearGradient>
</defs>
</svg>
